<svg width="96" height="97" viewBox="0 0 96 97" fill="none" xmlns="http://www.w3.org/2000/svg">
<path fill-rule="evenodd" clip-rule="evenodd" d="M0.958439 86.1636C0.990053 88.8735 2.08704 91.4599 4.00807 93.3539C5.9291 95.2478 8.51682 96.2943 11.202 96.263L85.4469 95.3968C88.132 95.3655 90.6946 94.2589 92.571 92.3206C94.4473 90.3823 95.4836 87.771 95.452 85.0612L94.9752 44.1913C94.9647 43.2881 94.599 42.4259 93.9587 41.7946C93.3183 41.1633 92.4557 40.8144 91.5607 40.8249C90.6657 40.8353 89.8114 41.2042 89.186 41.8503C88.5606 42.4964 88.2151 43.3668 88.2257 44.2701L88.7025 85.1399C88.713 86.0432 88.3676 86.9137 87.7421 87.5598C87.1167 88.2059 86.2625 88.5747 85.3674 88.5851L11.1225 89.4513C10.2274 89.4618 9.36487 89.113 8.72452 88.4816C8.08418 87.8503 7.71852 86.9881 7.70798 86.0849L6.83383 11.1568C6.82329 10.2535 7.16874 9.38308 7.79418 8.73698C8.41962 8.09088 9.27382 7.72204 10.1689 7.71159L54.0409 7.19976C54.9359 7.18932 55.7901 6.82048 56.4156 6.17438C57.041 5.52828 57.3865 4.65785 57.3759 3.75457C57.3654 2.85129 56.9997 1.98915 56.3594 1.35782C55.719 0.726488 54.8565 0.377676 53.9614 0.388118L10.0894 0.899951C7.40426 0.931277 4.84167 2.0378 2.96534 3.9761C1.08902 5.9144 0.0526756 8.52569 0.08429 11.2355L0.958439 86.1636Z" fill="black"/>
</svg>
