<svg width="99" height="101" viewBox="0 0 99 101" fill="none" xmlns="http://www.w3.org/2000/svg">
<path d="M97.9965 9.90185C98.6345 10.5329 98.9987 11.3934 99.0093 12.2949C99.0198 13.1963 98.6757 14.0651 98.0526 14.7109L91.0958 21.9044L77.4378 8.43856L84.3946 1.24507C85.02 0.599197 85.874 0.230499 86.7689 0.220059C87.6638 0.209619 88.5262 0.558292 89.1665 1.1894L97.9964 9.89504L97.9965 9.90185ZM86.38 26.7691L72.7219 13.3033L27.2788 60.2543C26.9117 60.6334 26.6374 61.0938 26.4777 61.5989L21.2362 78.1056C21.1411 78.4065 21.1309 78.7282 21.2066 79.0347C21.2823 79.3412 21.441 79.6204 21.6649 79.8411C21.8888 80.0619 22.1691 80.2155 22.4745 80.2847C22.7798 80.3539 23.0983 80.3361 23.3941 80.2332L39.6236 74.5597C40.1195 74.3888 40.5692 74.1037 40.9369 73.7269L86.38 26.7759L86.38 26.7691Z" fill="black"/>
<path fill-rule="evenodd" clip-rule="evenodd" d="M1.03315 89.7862C1.06476 92.496 2.16175 95.0824 4.08278 96.9764C6.00381 98.8704 8.59152 99.9168 11.2767 99.8855L85.5216 99.0193C88.2067 98.988 90.7693 97.8815 92.6457 95.9432C94.522 94.0049 95.5583 91.3936 95.5267 88.6838L95.0499 47.8139C95.0394 46.9106 94.6737 46.0485 94.0334 45.4172C93.393 44.7858 92.5304 44.437 91.6354 44.4474C90.7404 44.4579 89.8862 44.8267 89.2607 45.4728C88.6353 46.1189 88.2898 46.9894 88.3004 47.8926L88.7772 88.7625C88.7877 89.6658 88.4423 90.5362 87.8168 91.1823C87.1914 91.8284 86.3372 92.1972 85.4421 92.2077L11.1972 93.0739C10.3021 93.0843 9.43957 92.7355 8.79923 92.1042C8.15889 91.4728 7.79322 90.6107 7.78269 89.7074L6.90854 14.7793C6.898 13.8761 7.24345 13.0056 7.86889 12.3595C8.49433 11.7134 9.34853 11.3446 10.2436 11.3342L54.1156 10.8223C55.0106 10.8119 55.8648 10.443 56.4903 9.79694C57.1157 9.15084 57.4612 8.28041 57.4506 7.37713C57.4401 6.47385 57.0744 5.61171 56.4341 4.98038C55.7937 4.34905 54.9312 4.00023 54.0361 4.01068L10.1641 4.52251C7.47897 4.55384 4.91637 5.66036 3.04005 7.59866C1.16373 9.53695 0.127383 12.1482 0.158997 14.8581L1.03315 89.7862Z" fill="black"/>
</svg>
