<?xml version="1.0" encoding="UTF-8"?>
<svg version="1.1" xmlns="http://www.w3.org/2000/svg" width="360" height="360">
<path d="M0 0 C0.66 0 1.32 0 2 0 C2.28496338 0.57105469 2.56992676 1.14210937 2.86352539 1.73046875 C10.73334528 17.39849394 19.49949583 32.27117265 29 47 C29.51481934 47.80195801 30.02963867 48.60391602 30.56005859 49.43017578 C34.12695942 54.98628669 37.72127473 60.5242596 41.34130859 66.04589844 C67.86099339 106.49771538 99.1422825 155.35337773 88.87084961 206.19384766 C88.06668684 209.52849013 87.08059806 212.74137407 86 216 C85.68651611 216.96486328 85.68651611 216.96486328 85.36669922 217.94921875 C77.88151 240.42160706 61.0505128 258.50938434 40.1875 269.25 C19.05354022 279.71772993 -4.98415879 280.98078877 -27.390625 273.93359375 C-39.81310722 269.47386376 -50.14868958 262.70799459 -60 254 C-60.63550781 253.44828125 -61.27101563 252.8965625 -61.92578125 252.328125 C-79.03953622 236.43397096 -87.95227444 212.38292285 -89.1875 189.53125 C-90.02543562 143.02582323 -63.85348231 101.16009994 -38.6875 63.98828125 C-24.66278982 43.25868078 -11.39334895 22.29240944 0 0 Z " fill="#B30102" transform="translate(179,42)"/>
<path d="M0 0 C1.69356109 3.38712217 0.01140594 7.00636637 -0.8125 10.5625 C-6.21889919 35.4961431 -8.83526083 64.31356177 -1 89 C-0.55916477 90.51541252 -0.11908623 92.03104533 0.3203125 93.546875 C5.72717879 111.50310435 14.78366344 129.42235262 30 141 C25.11267766 142.62910745 21.4677778 140.20054727 17 138 C-1.35187805 127.50976748 -14.03073329 111.48687406 -19.8125 91.125 C-23.68461254 76.1528315 -23.21091701 59.80612754 -19 45 C-18.6596875 43.7521875 -18.319375 42.504375 -17.96875 41.21875 C-13.84383571 26.75464836 -7.55264577 12.98826204 0 0 Z " fill="#FCAFAF" transform="translate(130,157)"/>
<path d="M0 0 C1.08784335 3.31395986 1.07262544 3.83580335 -0.4375 7.25 C-0.953125 8.1575 -1.46875 9.065 -2 10 C-2.66 10 -3.32 10 -4 10 C-5.81602517 14.53832753 -5.81602517 14.53832753 -5 19 C-6.2065625 19.680625 -6.2065625 19.680625 -7.4375 20.375 C-10.08856572 21.74725665 -10.08856572 21.74725665 -11 24 C-11.99 24 -12.98 24 -14 24 C-13.896875 24.86625 -13.79375 25.7325 -13.6875 26.625 C-14.03825475 30.41315126 -15.14525608 31.75384381 -17.69921875 34.48046875 C-19.25307168 36.16784788 -19.25307168 36.16784788 -20.625 39.3125 C-22 42 -22 42 -25 43 C-26.22520264 46.00847418 -26.22520264 46.00847418 -27 49 C-27.99 48.34 -28.98 47.68 -30 47 C-24.01541527 37.06740976 -17.92287739 27.25018379 -11.4375 17.63671875 C-7.52193831 11.82515085 -3.76844718 5.90754159 0 0 Z " fill="#AC1416" transform="translate(154,85)"/>
<path d="M0 0 C1.24890322 2.49780645 0.87615088 3.31833886 0.2578125 6 C0.07895508 6.80074951 -0.09990234 7.60149902 -0.28417969 8.42651367 C-0.47915039 9.27576416 -0.67412109 10.12501465 -0.875 11 C-2.35240097 17.6752688 -3.55170037 24.16343068 -4 31 C-4.33 31 -4.66 31 -5 31 C-5 29.02 -5 27.04 -5 25 C-5.99 25.33 -6.98 25.66 -8 26 C-8.66 25.67 -9.32 25.34 -10 25 C-10.66 26.32 -11.32 27.64 -12 29 C-12.33 28.34 -12.66 27.68 -13 27 C-12.05915125 24.45399716 -11.05593042 22.02966754 -9.9375 19.5625 C-9.61966553 18.84835938 -9.30183105 18.13421875 -8.97436523 17.3984375 C-6.2809278 11.43176725 -3.2780936 5.6676197 0 0 Z " fill="#F8A6A6" transform="translate(130,157)"/>
<path d="M0 0 C0.66 0.33 1.32 0.66 2 1 C1.7834375 1.84304687 1.7834375 1.84304687 1.5625 2.703125 C-1.70402735 17.49323496 -0.58529233 32.41733429 3 47 C3.34192428 48.66492543 3.67867403 50.33097678 4 52 C3.01 52.495 3.01 52.495 2 53 C1.79503906 52.21753906 1.59007813 51.43507812 1.37890625 50.62890625 C1.10949219 49.61699219 0.84007813 48.60507813 0.5625 47.5625 C0.29566406 46.55316406 0.02882813 45.54382813 -0.24609375 44.50390625 C-0.75978077 42.08247999 -0.75978077 42.08247999 -2 41 C-2.11342694 38.6451043 -2.1641779 36.32070835 -2.16796875 33.96484375 C-2.17129715 33.2527626 -2.17462555 32.54068146 -2.17805481 31.80702209 C-2.18313065 30.2929855 -2.18546293 28.77893767 -2.18530273 27.26489258 C-2.18746807 24.97132217 -2.20555681 22.67824946 -2.22460938 20.38476562 C-2.22754758 18.91145997 -2.22952952 17.43815204 -2.23046875 15.96484375 C-2.23765427 15.28743637 -2.24483978 14.61002899 -2.25224304 13.91209412 C-2.22901569 8.95311079 -1.33294044 4.73644554 0 0 Z " fill="#A91618" transform="translate(109,204)"/>
<path d="M0 0 C-6.47533706 7.27684458 -18.81492123 10.13881299 -28 12 C-28.99 11.67 -29.98 11.34 -31 11 C-25.9246188 8.67239417 -20.99079817 7.0888702 -15.5625 5.8125 C-14.83095703 5.63525391 -14.09941406 5.45800781 -13.34570312 5.27539062 C-11.56511585 4.84479109 -9.78273774 4.42160784 -8 4 C-8 3.01 -8 2.02 -8 1 C-5.07175348 0.02391783 -3.04386724 -0.08226668 0 0 Z " fill="#A72828" transform="translate(225,307)"/>
<path d="M0 0 C1.2825732 2.5651464 0.83262969 3.57895596 0.22265625 6.3515625 C-0.05288086 7.62773437 -0.05288086 7.62773437 -0.33398438 8.9296875 C-0.53314453 9.81914062 -0.73230469 10.70859375 -0.9375 11.625 C-1.13279297 12.5221875 -1.32808594 13.419375 -1.52929688 14.34375 C-2.01347896 16.56390201 -2.50394969 18.7824749 -3 21 C-3.66 20.34 -4.32 19.68 -5 19 C-5 17.68 -5 16.36 -5 15 C-5.66 15 -6.32 15 -7 15 C-5.45454854 9.52067211 -2.84456788 4.88570819 0 0 Z " fill="#F89B9B" transform="translate(130,157)"/>
<path d="M0 0 C3.08708331 3.70589056 5.73750332 7.57910265 8.25 11.6875 C8.61351562 12.26822266 8.97703125 12.84894531 9.3515625 13.44726562 C12 17.7534657 12 17.7534657 12 20 C11.34 20 10.68 20 10 20 C9.54625 19.21625 9.0925 18.4325 8.625 17.625 C6.849953 14.75761638 5.93612808 14.37631004 3 13 C1.1875 11.125 1.1875 11.125 0 9 C0.375 7.0625 0.375 7.0625 1 5 C0.61432869 2.31850007 0.61432869 2.31850007 0 0 Z " fill="#AA1212" transform="translate(193,66)"/>
<path d="M0 0 C0.680625 0.70125 1.36125 1.4025 2.0625 2.125 C5.20780513 5.27934337 8.5888386 8.13934304 12 11 C8.36706002 12.21097999 7.46007593 11.67110261 4 10.25 C3.13375 9.90453125 2.2675 9.5590625 1.375 9.203125 C-0.92002578 8.04051326 -2.32041091 6.92268751 -4 5 C-1.03 5.495 -1.03 5.495 2 6 C1.67 5.38125 1.34 4.7625 1 4.125 C0 2 0 2 0 0 Z " fill="#F9A29F" transform="translate(148,287)"/>
<path d="M0 0 C2.64 0 5.28 0 8 0 C8 0.66 8 1.32 8 2 C8.99 2.33 9.98 2.66 11 3 C11 3.99 11 4.98 11 6 C11.66 6 12.32 6 13 6 C13 7.32 13 8.64 13 10 C9.74035658 8.51222697 7.06830707 6.64333184 4.25 4.4375 C3.45078125 3.81746094 2.6515625 3.19742187 1.828125 2.55859375 C1.22484375 2.04425781 0.6215625 1.52992188 0 1 C0 0.67 0 0.34 0 0 Z " fill="#AD1719" transform="translate(120,296)"/>
<path d="M0 0 C0.33 0 0.66 0 1 0 C2.06732813 11.13305344 1.82950855 21.8590621 1 33 C0.67 33 0.34 33 0 33 C-1.51705788 22.00133036 -1.42031141 11.00741345 0 0 Z " fill="#AD3434" transform="translate(91,211)"/>
<path d="M0 0 C1.49188066 4.47564198 -0.49848503 7.00275347 -2.4609375 11.125 C-4.55584472 15.03832922 -6.88440757 18.8113145 -10 22 C-10.66 22 -11.32 22 -12 22 C-10.2657267 17.02642312 -7.56672043 12.68501047 -4.875 8.1875 C-4.40707031 7.39923828 -3.93914062 6.61097656 -3.45703125 5.79882812 C-2.30784603 3.86397546 -1.15542997 1.93112772 0 0 Z " fill="#A51C1F" transform="translate(173,54)"/>
<path d="M0 0 C0.33 0.66 0.66 1.32 1 2 C1.66 2 2.32 2 3 2 C3.33 3.65 3.66 5.3 4 7 C3.34 7 2.68 7 2 7 C1.95101562 7.62648437 1.90203125 8.25296875 1.8515625 8.8984375 C1.77679688 9.71570313 1.70203125 10.53296875 1.625 11.375 C1.55539063 12.18710938 1.48578125 12.99921875 1.4140625 13.8359375 C1 16 1 16 -1 18 C-0.89171875 16.95199219 -0.89171875 16.95199219 -0.78125 15.8828125 C-0.6884375 14.97273437 -0.595625 14.06265625 -0.5 13.125 C-0.4071875 12.22007812 -0.314375 11.31515625 -0.21875 10.3828125 C0.03047295 8.06686789 0.03047295 8.06686789 0 6 C-0.66 6.66 -1.32 7.32 -2 8 C-2.20086443 4.28400809 -2.1519437 3.22791555 0 0 Z " fill="#AD1012" transform="translate(129,154)"/>
<path d="M0 0 C2.31551097 0.42127361 4.62740355 0.86248121 6.9375 1.3125 C8.22527344 1.55613281 9.51304687 1.79976563 10.83984375 2.05078125 C11.88269531 2.36402344 12.92554688 2.67726563 14 3 C14.33 3.99 14.66 4.98 15 6 C10.38 5.34 5.76 4.68 1 4 C0.67 2.68 0.34 1.36 0 0 Z " fill="#B5191A" transform="translate(150,296)"/>
<path d="M0 0 C0.66 0 1.32 0 2 0 C0.43358249 4.30764815 -1.68336156 8.06171464 -4 12 C-4.33 12 -4.66 12 -5 12 C-5.33 9.36 -5.66 6.72 -6 4 C-4.02 3.67 -2.04 3.34 0 3 C0 2.01 0 1.02 0 0 Z " fill="#AB1C1B" transform="translate(258,269)"/>
<path d="M0 0 C2.98162648 2.68064211 4.99718996 5.84817485 7.1875 9.1875 C7.90292969 10.27417969 8.61835938 11.36085938 9.35546875 12.48046875 C9.89816406 13.31191406 10.44085938 14.14335938 11 15 C10.67 15.66 10.34 16.32 10 17 C9.34 15.68 8.68 14.36 8 13 C7.01 13 6.02 13 5 13 C4.71125 12.05125 4.4225 11.1025 4.125 10.125 C3.23174891 6.94788422 3.23174891 6.94788422 1 5 C0.375 2.375 0.375 2.375 0 0 Z " fill="#A20E10" transform="translate(216,103)"/>
<path d="M0 0 C1.19156292 4.76625167 0.3415946 5.87879351 -2 10 C-2.66 10 -3.32 10 -4 10 C-4.33 10.99 -4.66 11.98 -5 13 C-5.99 12.67 -6.98 12.34 -8 12 C-5.36 8.04 -2.72 4.08 0 0 Z " fill="#B32A30" transform="translate(154,85)"/>
<path d="M0 0 C2 2 2 2 3 5.0625 C3.65752556 8.12150806 3.65752556 8.12150806 6 9 C6 11.31 6 13.62 6 16 C5.34 16.33 4.68 16.66 4 17 C3.32635339 14.91891315 2.66133202 12.8350329 2 10.75 C1.62875 9.58984375 1.2575 8.4296875 0.875 7.234375 C0 4 0 4 0 0 Z " fill="#AA0F11" transform="translate(128,242)"/>
<path d="M0 0 C2.72772048 2.72772048 3.7460131 5.97005745 5.125 9.5 C5.54072266 10.53447266 5.54072266 10.53447266 5.96484375 11.58984375 C8 16.73287408 8 16.73287408 8 19 C7.34 19 6.68 19 6 19 C4.99141578 16.58660204 3.99297327 14.16981325 3 11.75 C2.57074219 10.72712891 2.57074219 10.72712891 2.1328125 9.68359375 C0.70654506 6.18584265 0 3.83099811 0 0 Z " fill="#9D0E12" transform="translate(253,166)"/>
<path d="M0 0 C1.6852084 4.07679159 0.16939007 6.83075593 -1.4375 10.75 C-1.91058594 11.92046875 -2.38367188 13.0909375 -2.87109375 14.296875 C-3.24363281 15.18890625 -3.61617188 16.0809375 -4 17 C-4.66 16.67 -5.32 16.34 -6 16 C-6 15.34 -6 14.68 -6 14 C-5.34 14 -4.68 14 -4 14 C-4 12.02 -4 10.04 -4 8 C-3.34 8 -2.68 8 -2 8 C-1.7834375 6.576875 -1.7834375 6.576875 -1.5625 5.125 C-1 2 -1 2 0 0 Z " fill="#A11314" transform="translate(265,251)"/>
<path d="M0 0 C5.98511371 0.34302035 10.75117306 0.82307843 16 4 C12.11764181 5.49828872 9.56550712 4.43110582 5.75 3.0625 C4.67234375 2.68222656 3.5946875 2.30195313 2.484375 1.91015625 C1.66453125 1.60980469 0.8446875 1.30945313 0 1 C0 0.67 0 0.34 0 0 Z " fill="#AD322F" transform="translate(146,313)"/>
<path d="M0 0 C1.8125 0.1875 1.8125 0.1875 4 1 C5.8125 3.4375 5.8125 3.4375 7 6 C6.67 6.66 6.34 7.32 6 8 C0.33846154 6.52307692 0.33846154 6.52307692 -1.375 3.875 C-1.58125 3.25625 -1.7875 2.6375 -2 2 C-1.34 2 -0.68 2 0 2 C0 1.34 0 0.68 0 0 Z " fill="#FCB3B5" transform="translate(144,286)"/>
<path d="M0 0 C1.98 0 3.96 0 6 0 C6 0.99 6 1.98 6 3 C3.69 4.32 1.38 5.64 -1 7 C-0.67 4.69 -0.34 2.38 0 0 Z " fill="#B1171B" transform="translate(227,300)"/>
<path d="M0 0 C0.99 0 1.98 0 3 0 C3 0.66 3 1.32 3 2 C4.32 2.33 5.64 2.66 7 3 C6.625 4.9375 6.625 4.9375 6 7 C5.01 7.495 5.01 7.495 4 8 C0 2.25 0 2.25 0 0 Z " fill="#B01B1D" transform="translate(104,276)"/>
<path d="M0 0 C2.64 0.33 5.28 0.66 8 1 C7.01 2.485 7.01 2.485 6 4 C6.30840599 6.15274948 6.30840599 6.15274948 7 8 C5.8274869 7.04882866 4.66212985 6.08882991 3.5 5.125 C2.8503125 4.59132813 2.200625 4.05765625 1.53125 3.5078125 C1.0259375 3.01023437 0.520625 2.51265625 0 2 C0 1.34 0 0.68 0 0 Z " fill="#AF1716" transform="translate(150,288)"/>
<path d="M0 0 C2.94995547 3.45856848 5.22675738 6.80021485 7 11 C6.67 11.66 6.34 12.32 6 13 C5.34 13 4.68 13 4 13 C3.34 10.36 2.68 7.72 2 5 C1.34 5 0.68 5 0 5 C0 3.35 0 1.7 0 0 Z " fill="#9F1315" transform="translate(241,143)"/>
<path d="M0 0 C0.33 0 0.66 0 1 0 C1 2.31 1 4.62 1 7 C-0.32 7.33 -1.64 7.66 -3 8 C-3 8.99 -3 9.98 -3 11 C-3.66 11 -4.32 11 -5 11 C-3.77782954 6.95743617 -2.37245704 3.50711041 0 0 Z " fill="#A92123" transform="translate(118,142)"/>
<path d="M0 0 C2.74277578 3.19990508 4.6302836 6.00499382 6 10 C5.01 10.495 5.01 10.495 4 11 C2 9.4375 2 9.4375 0 7 C-0.25 3.25 -0.25 3.25 0 0 Z " fill="#AA1A1B" transform="translate(187,56)"/>
<path d="M0 0 C4.875 1.75 4.875 1.75 6 4 C6.039992 5.99960012 6.04346799 8.00047242 6 10 C3.25722422 6.80009492 1.3697164 3.99500618 0 0 Z " fill="#F8A6A0" transform="translate(116,262)"/>
<path d="M0 0 C0.66 0 1.32 0 2 0 C2 0.99 2 1.98 2 3 C3.11375 3.185625 3.11375 3.185625 4.25 3.375 C6.80141485 3.95486701 8.7267573 4.73708739 11 6 C8.5332355 6.88336837 7.36140628 7.1312406 4.859375 6.22265625 C4.16328125 5.83980469 3.4671875 5.45695312 2.75 5.0625 C2.04359375 4.68222656 1.3371875 4.30195313 0.609375 3.91015625 C0.07828125 3.60980469 -0.4528125 3.30945313 -1 3 C-0.67 2.01 -0.34 1.02 0 0 Z " fill="#AC2223" transform="translate(137,306)"/>
<path d="M0 0 C0.99 0.33 1.98 0.66 3 1 C0.53846154 5.8 0.53846154 5.8 -2.1875 6.8125 C-2.785625 6.874375 -3.38375 6.93625 -4 7 C-3.67 5.68 -3.34 4.36 -3 3 C-2.01 3 -1.02 3 0 3 C0 2.01 0 1.02 0 0 Z " fill="#AF0E13" transform="translate(115,150)"/>
<path d="M0 0 C0.75 1.625 0.75 1.625 1 4 C-0.8125 7.25 -0.8125 7.25 -3 10 C-3.66 10 -4.32 10 -5 10 C-3.66511872 6.40608886 -2.03977277 3.24509304 0 0 Z " fill="#B12C31" transform="translate(166,66)"/>
<path d="M0 0 C2.60018816 3.90028225 2.15085514 7.47434569 2 12 C-0.31509559 8.52735662 -0.62582455 6.11592992 -1 2 C-0.67 1.34 -0.34 0.68 0 0 Z " fill="#AD2A2B" transform="translate(93,244)"/>
<path d="M0 0 C0.0825 0.61875 0.165 1.2375 0.25 1.875 C0.81258459 4.18437567 0.81258459 4.18437567 3.0625 5.25 C3.701875 5.4975 4.34125 5.745 5 6 C5 6.66 5 7.32 5 8 C4.01 8.33 3.02 8.66 2 9 C1.01 6.36 0.02 3.72 -1 1 C-0.67 0.67 -0.34 0.34 0 0 Z " fill="#B11217" transform="translate(134,259)"/>
<path d="M0 0 C0.66 0 1.32 0 2 0 C2.20086443 3.71599191 2.1519437 4.77208445 0 8 C-0.66 8 -1.32 8 -2 8 C-1.34 5.36 -0.68 2.72 0 0 Z " fill="#B03233" transform="translate(99,181)"/>
<path d="M0 0 C1 2 1 2 0.0625 5.125 C-0.288125 6.07375 -0.63875 7.0225 -1 8 C-1.99 8 -2.98 8 -4 8 C-2.87548273 5.0280615 -1.77706209 2.66559313 0 0 Z " fill="#A72222" transform="translate(123,134)"/>
<path d="M0 0 C1.25541557 3.76624671 0.37061958 5.37188934 -1 9 C-1.99 8.34 -2.98 7.68 -4 7 C-2.68 4.69 -1.36 2.38 0 0 Z " fill="#AE312F" transform="translate(128,125)"/>
<path d="M0 0 C2.72426311 2.35277269 3.8141763 4.62496331 5 8 C4.01 8 3.02 8 2 8 C2 6.68 2 5.36 2 4 C1.01 4 0.02 4 -1 4 C-0.67 2.68 -0.34 1.36 0 0 Z " fill="#A40F10" transform="translate(227,120)"/>
<path d="M0 0 C0.66 0.33 1.32 0.66 2 1 C1.34 2.65 0.68 4.3 0 6 C-1.32 4.68 -2.64 3.36 -4 2 C-2.125 0.9375 -2.125 0.9375 0 0 Z " fill="#AB0C0A" transform="translate(150,282)"/>
<path d="M0 0 C1.74627478 2.61941217 2.38722388 4.03824877 3 7 C1.66666667 7 0.33333333 7 -1 7 C-0.67 4.69 -0.34 2.38 0 0 Z " fill="#F9A6A2" transform="translate(131,256)"/>
<path d="M0 0 C0.66 0.99 1.32 1.98 2 3 C1.360625 3.61875 0.72125 4.2375 0.0625 4.875 C-2.03883584 6.82597612 -2.03883584 6.82597612 -3 9 C-3.66 9 -4.32 9 -5 9 C-3.7508258 5.54074837 -2.32472205 2.85306797 0 0 Z " fill="#AE3133" transform="translate(136,113)"/>
<path d="M0 0 C1 4 1 4 0 6 C-0.66 6 -1.32 6 -2 6 C-2.33 6.99 -2.66 7.98 -3 9 C-3.66 8.67 -4.32 8.34 -5 8 C-3.35 5.36 -1.7 2.72 0 0 Z " fill="#AC2B2E" transform="translate(160,76)"/>
<path d="M0 0 C0.66 0 1.32 0 2 0 C2.33 0.99 2.66 1.98 3 3 C2.01 3.495 2.01 3.495 1 4 C0.67 4.99 0.34 5.98 0 7 C-0.99 7.33 -1.98 7.66 -3 8 C-1.125 2.25 -1.125 2.25 0 0 Z " fill="#A11A1E" transform="translate(179,42)"/>
<path d="M0 0 C0.99 0.33 1.98 0.66 3 1 C3 3.64 3 6.28 3 9 C0.87491756 5.81237635 0.4979837 3.73487777 0 0 Z " fill="#A92928" transform="translate(95,256)"/>
<path d="M0 0 C0.66 0 1.32 0 2 0 C1.01 3.3 0.02 6.6 -1 10 C-1.33 10 -1.66 10 -2 10 C-1.85950482 8.52031676 -1.71245174 7.04125484 -1.5625 5.5625 C-1.48128906 4.73878906 -1.40007812 3.91507813 -1.31640625 3.06640625 C-1 1 -1 1 0 0 Z " fill="#AD181D" transform="translate(116,182)"/>
<path d="M0 0 C2.6875 0.3125 2.6875 0.3125 5 1 C4.67 1.66 4.34 2.32 4 3 C3.34 2.67 2.68 2.34 2 2 C1.67 2.66 1.34 3.32 1 4 C-0.32 3.67 -1.64 3.34 -3 3 C-1.8125 1.4375 -1.8125 1.4375 0 0 Z " fill="#B0060C" transform="translate(236,140)"/>
<path d="M0 0 C2.25245881 2.68841859 3.88213958 4.64641875 5 8 C4.01 8.33 3.02 8.66 2 9 C0.50178941 5.62902617 0 3.79557881 0 0 Z " fill="#A6282A" transform="translate(193,66)"/>
<path d="" fill="#FFFFFF" transform="translate(0,0)"/>
<path d="" fill="#FFFFFF" transform="translate(0,0)"/>
<path d="" fill="#FFFFFF" transform="translate(0,0)"/>
<path d="" fill="#FFFFFF" transform="translate(0,0)"/>
<path d="" fill="#FFFFFF" transform="translate(0,0)"/>
<path d="" fill="#FFFFFF" transform="translate(0,0)"/>
<path d="" fill="#FFFFFF" transform="translate(0,0)"/>
<path d="" fill="#FFFFFF" transform="translate(0,0)"/>
<path d="" fill="#FFFFFF" transform="translate(0,0)"/>
<path d="" fill="#FFFFFF" transform="translate(0,0)"/>
<path d="" fill="#FFFFFF" transform="translate(0,0)"/>
<path d="" fill="#FFFFFF" transform="translate(0,0)"/>
<path d="" fill="#FFFFFF" transform="translate(0,0)"/>
<path d="" fill="#FFFFFF" transform="translate(0,0)"/>
<path d="" fill="#FFFFFF" transform="translate(0,0)"/>
<path d="" fill="#FFFFFF" transform="translate(0,0)"/>
<path d="" fill="#FFFFFF" transform="translate(0,0)"/>
<path d="" fill="#FFFFFF" transform="translate(0,0)"/>
<path d="" fill="#FFFFFF" transform="translate(0,0)"/>
<path d="" fill="#FFFFFF" transform="translate(0,0)"/>
<path d="" fill="#FFFFFF" transform="translate(0,0)"/>
<path d="" fill="#FFFFFF" transform="translate(0,0)"/>
<path d="" fill="#FFFFFF" transform="translate(0,0)"/>
<path d="" fill="#FFFFFF" transform="translate(0,0)"/>
<path d="" fill="#FFFFFF" transform="translate(0,0)"/>
<path d="" fill="#FFFFFF" transform="translate(0,0)"/>
<path d="" fill="#FFFFFF" transform="translate(0,0)"/>
<path d="" fill="#FFFFFF" transform="translate(0,0)"/>
<path d="" fill="#FFFFFF" transform="translate(0,0)"/>
<path d="" fill="#FFFFFF" transform="translate(0,0)"/>
<path d="" fill="#FFFFFF" transform="translate(0,0)"/>
<path d="" fill="#FFFFFF" transform="translate(0,0)"/>
<path d="" fill="#FFFFFF" transform="translate(0,0)"/>
<path d="" fill="#FFFFFF" transform="translate(0,0)"/>
<path d="" fill="#FFFFFF" transform="translate(0,0)"/>
<path d="" fill="#FFFFFF" transform="translate(0,0)"/>
<path d="" fill="#FFFFFF" transform="translate(0,0)"/>
<path d="" fill="#FFFFFF" transform="translate(0,0)"/>
<path d="" fill="#FFFFFF" transform="translate(0,0)"/>
<path d="" fill="#FFFFFF" transform="translate(0,0)"/>
<path d="" fill="#FFFFFF" transform="translate(0,0)"/>
<path d="" fill="#FFFFFF" transform="translate(0,0)"/>
<path d="" fill="#FFFFFF" transform="translate(0,0)"/>
<path d="" fill="#FFFFFF" transform="translate(0,0)"/>
<path d="" fill="#FFFFFF" transform="translate(0,0)"/>
<path d="" fill="#FFFFFF" transform="translate(0,0)"/>
<path d="" fill="#FFFFFF" transform="translate(0,0)"/>
<path d="" fill="#FFFFFF" transform="translate(0,0)"/>
<path d="" fill="#FFFFFF" transform="translate(0,0)"/>
<path d="" fill="#FFFFFF" transform="translate(0,0)"/>
<path d="" fill="#FFFFFF" transform="translate(0,0)"/>
<path d="" fill="#FFFFFF" transform="translate(0,0)"/>
<path d="" fill="#FFFFFF" transform="translate(0,0)"/>
<path d="" fill="#FFFFFF" transform="translate(0,0)"/>
<path d="" fill="#FFFFFF" transform="translate(0,0)"/>
<path d="" fill="#FFFFFF" transform="translate(0,0)"/>
<path d="" fill="#FFFFFF" transform="translate(0,0)"/>
<path d="" fill="#FFFFFF" transform="translate(0,0)"/>
<path d="" fill="#FFFFFF" transform="translate(0,0)"/>
<path d="" fill="#FFFFFF" transform="translate(0,0)"/>
<path d="" fill="#FFFFFF" transform="translate(0,0)"/>
<path d="" fill="#FFFFFF" transform="translate(0,0)"/>
<path d="" fill="#FFFFFF" transform="translate(0,0)"/>
<path d="" fill="#FFFFFF" transform="translate(0,0)"/>
</svg>
